<mxfile host="app.diagrams.net" agent="Mozilla/5.0 (Macintosh; Intel Mac OS X 10_15_7) AppleWebKit/537.36 (KHTML, like Gecko) Chrome/135.0.0.0 Safari/537.36" version="26.2.9">
  <diagram id="C5RBs43oDa-KdzZeNtuy" name="Page-1">
    <mxGraphModel dx="2551" dy="1171" grid="1" gridSize="10" guides="1" tooltips="1" connect="1" arrows="1" fold="1" page="1" pageScale="1" pageWidth="827" pageHeight="1169" math="0" shadow="0">
      <root>
        <mxCell id="WIyWlLk6GJQsqaUBKTNV-0" />
        <mxCell id="WIyWlLk6GJQsqaUBKTNV-1" parent="WIyWlLk6GJQsqaUBKTNV-0" />
        <mxCell id="T6R3TMmmlZJ9ly_gr5W5-67" style="edgeStyle=orthogonalEdgeStyle;rounded=0;orthogonalLoop=1;jettySize=auto;html=1;exitX=0.5;exitY=1;exitDx=0;exitDy=0;entryX=0.5;entryY=0;entryDx=0;entryDy=0;" edge="1" parent="WIyWlLk6GJQsqaUBKTNV-1" source="T6R3TMmmlZJ9ly_gr5W5-0" target="T6R3TMmmlZJ9ly_gr5W5-22">
          <mxGeometry relative="1" as="geometry" />
        </mxCell>
        <mxCell id="T6R3TMmmlZJ9ly_gr5W5-0" value="" style="shape=actor;whiteSpace=wrap;html=1;" vertex="1" parent="WIyWlLk6GJQsqaUBKTNV-1">
          <mxGeometry x="305" y="54" width="40" height="60" as="geometry" />
        </mxCell>
        <mxCell id="T6R3TMmmlZJ9ly_gr5W5-56" style="edgeStyle=orthogonalEdgeStyle;rounded=0;orthogonalLoop=1;jettySize=auto;html=1;exitX=1;exitY=0.5;exitDx=0;exitDy=0;entryX=0;entryY=0.5;entryDx=0;entryDy=0;" edge="1" parent="WIyWlLk6GJQsqaUBKTNV-1" source="T6R3TMmmlZJ9ly_gr5W5-1" target="T6R3TMmmlZJ9ly_gr5W5-5">
          <mxGeometry relative="1" as="geometry" />
        </mxCell>
        <mxCell id="T6R3TMmmlZJ9ly_gr5W5-1" value="Firebase" style="shape=datastore;whiteSpace=wrap;html=1;" vertex="1" parent="WIyWlLk6GJQsqaUBKTNV-1">
          <mxGeometry x="165" y="650" width="60" height="60" as="geometry" />
        </mxCell>
        <mxCell id="T6R3TMmmlZJ9ly_gr5W5-54" style="edgeStyle=orthogonalEdgeStyle;rounded=0;orthogonalLoop=1;jettySize=auto;html=1;exitX=1;exitY=0.5;exitDx=0;exitDy=0;entryX=0;entryY=0.5;entryDx=0;entryDy=0;" edge="1" parent="WIyWlLk6GJQsqaUBKTNV-1" source="T6R3TMmmlZJ9ly_gr5W5-2" target="T6R3TMmmlZJ9ly_gr5W5-1">
          <mxGeometry relative="1" as="geometry" />
        </mxCell>
        <mxCell id="T6R3TMmmlZJ9ly_gr5W5-2" value="Supabase Storage" style="shape=datastore;whiteSpace=wrap;html=1;" vertex="1" parent="WIyWlLk6GJQsqaUBKTNV-1">
          <mxGeometry x="70" y="650" width="60" height="60" as="geometry" />
        </mxCell>
        <mxCell id="T6R3TMmmlZJ9ly_gr5W5-69" style="edgeStyle=orthogonalEdgeStyle;rounded=0;orthogonalLoop=1;jettySize=auto;html=1;exitX=0.5;exitY=1;exitDx=0;exitDy=0;entryX=0.5;entryY=0;entryDx=0;entryDy=0;" edge="1" parent="WIyWlLk6GJQsqaUBKTNV-1" source="T6R3TMmmlZJ9ly_gr5W5-3" target="T6R3TMmmlZJ9ly_gr5W5-6">
          <mxGeometry relative="1" as="geometry" />
        </mxCell>
        <mxCell id="T6R3TMmmlZJ9ly_gr5W5-3" value="Создание проекта/поста" style="html=1;whiteSpace=wrap;" vertex="1" parent="WIyWlLk6GJQsqaUBKTNV-1">
          <mxGeometry x="970" y="270" width="110" height="50" as="geometry" />
        </mxCell>
        <mxCell id="T6R3TMmmlZJ9ly_gr5W5-64" style="edgeStyle=orthogonalEdgeStyle;rounded=0;orthogonalLoop=1;jettySize=auto;html=1;exitX=0.5;exitY=1;exitDx=0;exitDy=0;entryX=0.5;entryY=0;entryDx=0;entryDy=0;" edge="1" parent="WIyWlLk6GJQsqaUBKTNV-1" source="T6R3TMmmlZJ9ly_gr5W5-4" target="T6R3TMmmlZJ9ly_gr5W5-16">
          <mxGeometry relative="1" as="geometry" />
        </mxCell>
        <mxCell id="T6R3TMmmlZJ9ly_gr5W5-66" style="edgeStyle=orthogonalEdgeStyle;rounded=0;orthogonalLoop=1;jettySize=auto;html=1;exitX=0.5;exitY=1;exitDx=0;exitDy=0;" edge="1" parent="WIyWlLk6GJQsqaUBKTNV-1" source="T6R3TMmmlZJ9ly_gr5W5-4" target="T6R3TMmmlZJ9ly_gr5W5-65">
          <mxGeometry relative="1" as="geometry" />
        </mxCell>
        <mxCell id="T6R3TMmmlZJ9ly_gr5W5-74" style="edgeStyle=orthogonalEdgeStyle;rounded=0;orthogonalLoop=1;jettySize=auto;html=1;exitX=0.5;exitY=1;exitDx=0;exitDy=0;" edge="1" parent="WIyWlLk6GJQsqaUBKTNV-1" source="T6R3TMmmlZJ9ly_gr5W5-4" target="T6R3TMmmlZJ9ly_gr5W5-8">
          <mxGeometry relative="1" as="geometry" />
        </mxCell>
        <mxCell id="T6R3TMmmlZJ9ly_gr5W5-4" value="Просмотр проектов/постов" style="html=1;whiteSpace=wrap;" vertex="1" parent="WIyWlLk6GJQsqaUBKTNV-1">
          <mxGeometry x="690" y="270" width="110" height="50" as="geometry" />
        </mxCell>
        <mxCell id="T6R3TMmmlZJ9ly_gr5W5-57" style="edgeStyle=orthogonalEdgeStyle;rounded=0;orthogonalLoop=1;jettySize=auto;html=1;entryX=0;entryY=0.5;entryDx=0;entryDy=0;" edge="1" parent="WIyWlLk6GJQsqaUBKTNV-1" target="T6R3TMmmlZJ9ly_gr5W5-14">
          <mxGeometry relative="1" as="geometry">
            <mxPoint x="279.9966666666666" y="650" as="sourcePoint" />
            <mxPoint x="419.93" y="195" as="targetPoint" />
            <Array as="points">
              <mxPoint x="280" y="610" />
              <mxPoint x="380" y="610" />
              <mxPoint x="380" y="195" />
            </Array>
          </mxGeometry>
        </mxCell>
        <mxCell id="T6R3TMmmlZJ9ly_gr5W5-5" value="Supporting database" style="shape=datastore;whiteSpace=wrap;html=1;" vertex="1" parent="WIyWlLk6GJQsqaUBKTNV-1">
          <mxGeometry x="260" y="650" width="60" height="60" as="geometry" />
        </mxCell>
        <mxCell id="T6R3TMmmlZJ9ly_gr5W5-93" style="edgeStyle=orthogonalEdgeStyle;rounded=0;orthogonalLoop=1;jettySize=auto;html=1;entryX=1;entryY=0.5;entryDx=0;entryDy=0;" edge="1" parent="WIyWlLk6GJQsqaUBKTNV-1" source="T6R3TMmmlZJ9ly_gr5W5-6" target="T6R3TMmmlZJ9ly_gr5W5-5">
          <mxGeometry relative="1" as="geometry">
            <Array as="points">
              <mxPoint x="980" y="680" />
            </Array>
          </mxGeometry>
        </mxCell>
        <mxCell id="T6R3TMmmlZJ9ly_gr5W5-6" value="Создание черновика" style="html=1;whiteSpace=wrap;" vertex="1" parent="WIyWlLk6GJQsqaUBKTNV-1">
          <mxGeometry x="930" y="350" width="110" height="50" as="geometry" />
        </mxCell>
        <mxCell id="T6R3TMmmlZJ9ly_gr5W5-76" style="edgeStyle=orthogonalEdgeStyle;rounded=0;orthogonalLoop=1;jettySize=auto;html=1;exitX=0;exitY=0.5;exitDx=0;exitDy=0;entryX=1;entryY=0.5;entryDx=0;entryDy=0;" edge="1" parent="WIyWlLk6GJQsqaUBKTNV-1" source="T6R3TMmmlZJ9ly_gr5W5-7" target="T6R3TMmmlZJ9ly_gr5W5-4">
          <mxGeometry relative="1" as="geometry" />
        </mxCell>
        <mxCell id="T6R3TMmmlZJ9ly_gr5W5-7" value="Поиск пользовотелей/проектов" style="html=1;whiteSpace=wrap;" vertex="1" parent="WIyWlLk6GJQsqaUBKTNV-1">
          <mxGeometry x="827" y="270" width="110" height="50" as="geometry" />
        </mxCell>
        <mxCell id="T6R3TMmmlZJ9ly_gr5W5-80" style="edgeStyle=orthogonalEdgeStyle;rounded=0;orthogonalLoop=1;jettySize=auto;html=1;exitX=0.5;exitY=1;exitDx=0;exitDy=0;entryX=0.5;entryY=0;entryDx=0;entryDy=0;" edge="1" parent="WIyWlLk6GJQsqaUBKTNV-1" source="T6R3TMmmlZJ9ly_gr5W5-8" target="T6R3TMmmlZJ9ly_gr5W5-1">
          <mxGeometry relative="1" as="geometry">
            <Array as="points">
              <mxPoint x="830" y="410" />
              <mxPoint x="830" y="630" />
              <mxPoint x="195" y="630" />
            </Array>
          </mxGeometry>
        </mxCell>
        <mxCell id="T6R3TMmmlZJ9ly_gr5W5-82" style="edgeStyle=orthogonalEdgeStyle;rounded=0;orthogonalLoop=1;jettySize=auto;html=1;exitX=0.5;exitY=1;exitDx=0;exitDy=0;" edge="1" parent="WIyWlLk6GJQsqaUBKTNV-1" source="T6R3TMmmlZJ9ly_gr5W5-8" target="T6R3TMmmlZJ9ly_gr5W5-81">
          <mxGeometry relative="1" as="geometry" />
        </mxCell>
        <mxCell id="T6R3TMmmlZJ9ly_gr5W5-8" value="Пометка проекта как &quot;В работе&quot;" style="html=1;whiteSpace=wrap;" vertex="1" parent="WIyWlLk6GJQsqaUBKTNV-1">
          <mxGeometry x="810" y="360" width="110" height="50" as="geometry" />
        </mxCell>
        <mxCell id="T6R3TMmmlZJ9ly_gr5W5-88" style="edgeStyle=orthogonalEdgeStyle;rounded=0;orthogonalLoop=1;jettySize=auto;html=1;exitX=0.5;exitY=1;exitDx=0;exitDy=0;entryX=0.5;entryY=0;entryDx=0;entryDy=0;" edge="1" parent="WIyWlLk6GJQsqaUBKTNV-1" source="T6R3TMmmlZJ9ly_gr5W5-9" target="T6R3TMmmlZJ9ly_gr5W5-11">
          <mxGeometry relative="1" as="geometry" />
        </mxCell>
        <mxCell id="T6R3TMmmlZJ9ly_gr5W5-9" value="" style="shape=actor;whiteSpace=wrap;html=1;" vertex="1" parent="WIyWlLk6GJQsqaUBKTNV-1">
          <mxGeometry x="-45" y="640" width="40" height="60" as="geometry" />
        </mxCell>
        <mxCell id="T6R3TMmmlZJ9ly_gr5W5-90" style="edgeStyle=orthogonalEdgeStyle;rounded=0;orthogonalLoop=1;jettySize=auto;html=1;exitX=0.5;exitY=0;exitDx=0;exitDy=0;entryX=0.5;entryY=1;entryDx=0;entryDy=0;" edge="1" parent="WIyWlLk6GJQsqaUBKTNV-1" source="T6R3TMmmlZJ9ly_gr5W5-10" target="T6R3TMmmlZJ9ly_gr5W5-1">
          <mxGeometry relative="1" as="geometry" />
        </mxCell>
        <mxCell id="T6R3TMmmlZJ9ly_gr5W5-10" value="Классификация как &quot;Туториал&quot;" style="html=1;whiteSpace=wrap;" vertex="1" parent="WIyWlLk6GJQsqaUBKTNV-1">
          <mxGeometry x="140" y="760" width="110" height="50" as="geometry" />
        </mxCell>
        <mxCell id="T6R3TMmmlZJ9ly_gr5W5-89" style="edgeStyle=orthogonalEdgeStyle;rounded=0;orthogonalLoop=1;jettySize=auto;html=1;exitX=1;exitY=0.5;exitDx=0;exitDy=0;entryX=0;entryY=0.5;entryDx=0;entryDy=0;" edge="1" parent="WIyWlLk6GJQsqaUBKTNV-1" source="T6R3TMmmlZJ9ly_gr5W5-11" target="T6R3TMmmlZJ9ly_gr5W5-10">
          <mxGeometry relative="1" as="geometry" />
        </mxCell>
        <mxCell id="T6R3TMmmlZJ9ly_gr5W5-11" value="Просмотр проекта/поста" style="html=1;whiteSpace=wrap;" vertex="1" parent="WIyWlLk6GJQsqaUBKTNV-1">
          <mxGeometry x="-80" y="760" width="110" height="50" as="geometry" />
        </mxCell>
        <mxCell id="T6R3TMmmlZJ9ly_gr5W5-86" style="edgeStyle=orthogonalEdgeStyle;rounded=0;orthogonalLoop=1;jettySize=auto;html=1;entryX=0.5;entryY=0;entryDx=0;entryDy=0;" edge="1" parent="WIyWlLk6GJQsqaUBKTNV-1" source="T6R3TMmmlZJ9ly_gr5W5-12" target="T6R3TMmmlZJ9ly_gr5W5-1">
          <mxGeometry relative="1" as="geometry">
            <Array as="points">
              <mxPoint x="445" y="630" />
              <mxPoint x="195" y="630" />
            </Array>
          </mxGeometry>
        </mxCell>
        <mxCell id="T6R3TMmmlZJ9ly_gr5W5-12" value="Подписка на пользователя" style="html=1;whiteSpace=wrap;" vertex="1" parent="WIyWlLk6GJQsqaUBKTNV-1">
          <mxGeometry x="390" y="360" width="110" height="50" as="geometry" />
        </mxCell>
        <mxCell id="T6R3TMmmlZJ9ly_gr5W5-108" style="edgeStyle=orthogonalEdgeStyle;rounded=0;orthogonalLoop=1;jettySize=auto;html=1;entryX=0.5;entryY=0;entryDx=0;entryDy=0;" edge="1" parent="WIyWlLk6GJQsqaUBKTNV-1" source="T6R3TMmmlZJ9ly_gr5W5-13" target="T6R3TMmmlZJ9ly_gr5W5-1">
          <mxGeometry relative="1" as="geometry">
            <Array as="points">
              <mxPoint x="550" y="630" />
              <mxPoint x="195" y="630" />
            </Array>
          </mxGeometry>
        </mxCell>
        <mxCell id="T6R3TMmmlZJ9ly_gr5W5-13" value="Общение с пользователями" style="html=1;whiteSpace=wrap;" vertex="1" parent="WIyWlLk6GJQsqaUBKTNV-1">
          <mxGeometry x="510" y="270" width="110" height="50" as="geometry" />
        </mxCell>
        <mxCell id="T6R3TMmmlZJ9ly_gr5W5-60" style="edgeStyle=orthogonalEdgeStyle;rounded=0;orthogonalLoop=1;jettySize=auto;html=1;exitX=0.5;exitY=1;exitDx=0;exitDy=0;entryX=0.5;entryY=0;entryDx=0;entryDy=0;" edge="1" parent="WIyWlLk6GJQsqaUBKTNV-1" source="T6R3TMmmlZJ9ly_gr5W5-14" target="T6R3TMmmlZJ9ly_gr5W5-15">
          <mxGeometry relative="1" as="geometry" />
        </mxCell>
        <mxCell id="T6R3TMmmlZJ9ly_gr5W5-61" style="edgeStyle=orthogonalEdgeStyle;rounded=0;orthogonalLoop=1;jettySize=auto;html=1;exitX=0.5;exitY=1;exitDx=0;exitDy=0;entryX=0.5;entryY=0;entryDx=0;entryDy=0;" edge="1" parent="WIyWlLk6GJQsqaUBKTNV-1" source="T6R3TMmmlZJ9ly_gr5W5-14" target="T6R3TMmmlZJ9ly_gr5W5-4">
          <mxGeometry relative="1" as="geometry" />
        </mxCell>
        <mxCell id="T6R3TMmmlZJ9ly_gr5W5-63" style="edgeStyle=orthogonalEdgeStyle;rounded=0;orthogonalLoop=1;jettySize=auto;html=1;exitX=0.5;exitY=1;exitDx=0;exitDy=0;entryX=0.5;entryY=0;entryDx=0;entryDy=0;" edge="1" parent="WIyWlLk6GJQsqaUBKTNV-1" source="T6R3TMmmlZJ9ly_gr5W5-14" target="T6R3TMmmlZJ9ly_gr5W5-13">
          <mxGeometry relative="1" as="geometry" />
        </mxCell>
        <mxCell id="T6R3TMmmlZJ9ly_gr5W5-68" style="edgeStyle=orthogonalEdgeStyle;rounded=0;orthogonalLoop=1;jettySize=auto;html=1;exitX=0.5;exitY=1;exitDx=0;exitDy=0;" edge="1" parent="WIyWlLk6GJQsqaUBKTNV-1" source="T6R3TMmmlZJ9ly_gr5W5-14" target="T6R3TMmmlZJ9ly_gr5W5-3">
          <mxGeometry relative="1" as="geometry" />
        </mxCell>
        <mxCell id="T6R3TMmmlZJ9ly_gr5W5-75" style="edgeStyle=orthogonalEdgeStyle;rounded=0;orthogonalLoop=1;jettySize=auto;html=1;exitX=0.5;exitY=1;exitDx=0;exitDy=0;" edge="1" parent="WIyWlLk6GJQsqaUBKTNV-1" source="T6R3TMmmlZJ9ly_gr5W5-14" target="T6R3TMmmlZJ9ly_gr5W5-7">
          <mxGeometry relative="1" as="geometry" />
        </mxCell>
        <mxCell id="T6R3TMmmlZJ9ly_gr5W5-104" style="edgeStyle=orthogonalEdgeStyle;rounded=0;orthogonalLoop=1;jettySize=auto;html=1;exitX=0.5;exitY=1;exitDx=0;exitDy=0;entryX=0.5;entryY=0;entryDx=0;entryDy=0;" edge="1" parent="WIyWlLk6GJQsqaUBKTNV-1" source="T6R3TMmmlZJ9ly_gr5W5-14" target="T6R3TMmmlZJ9ly_gr5W5-101">
          <mxGeometry relative="1" as="geometry" />
        </mxCell>
        <mxCell id="T6R3TMmmlZJ9ly_gr5W5-14" value="Загрузка данных" style="html=1;whiteSpace=wrap;" vertex="1" parent="WIyWlLk6GJQsqaUBKTNV-1">
          <mxGeometry x="430" y="170" width="110" height="50" as="geometry" />
        </mxCell>
        <mxCell id="T6R3TMmmlZJ9ly_gr5W5-62" style="edgeStyle=orthogonalEdgeStyle;rounded=0;orthogonalLoop=1;jettySize=auto;html=1;exitX=0.5;exitY=1;exitDx=0;exitDy=0;entryX=0.5;entryY=0;entryDx=0;entryDy=0;" edge="1" parent="WIyWlLk6GJQsqaUBKTNV-1" source="T6R3TMmmlZJ9ly_gr5W5-15" target="T6R3TMmmlZJ9ly_gr5W5-12">
          <mxGeometry relative="1" as="geometry" />
        </mxCell>
        <mxCell id="T6R3TMmmlZJ9ly_gr5W5-15" value="Просмотр профилей пользователей" style="html=1;whiteSpace=wrap;" vertex="1" parent="WIyWlLk6GJQsqaUBKTNV-1">
          <mxGeometry x="390" y="270" width="110" height="50" as="geometry" />
        </mxCell>
        <mxCell id="T6R3TMmmlZJ9ly_gr5W5-100" style="edgeStyle=orthogonalEdgeStyle;rounded=0;orthogonalLoop=1;jettySize=auto;html=1;" edge="1" parent="WIyWlLk6GJQsqaUBKTNV-1" source="T6R3TMmmlZJ9ly_gr5W5-16">
          <mxGeometry relative="1" as="geometry">
            <mxPoint x="100" y="710" as="targetPoint" />
            <Array as="points">
              <mxPoint x="615" y="730" />
              <mxPoint x="100" y="730" />
            </Array>
          </mxGeometry>
        </mxCell>
        <mxCell id="T6R3TMmmlZJ9ly_gr5W5-16" value="Оставление комментария" style="html=1;whiteSpace=wrap;" vertex="1" parent="WIyWlLk6GJQsqaUBKTNV-1">
          <mxGeometry x="560" y="360" width="110" height="50" as="geometry" />
        </mxCell>
        <mxCell id="T6R3TMmmlZJ9ly_gr5W5-18" value="Пользователь" style="text;strokeColor=none;fillColor=none;align=left;verticalAlign=top;spacingLeft=4;spacingRight=4;overflow=hidden;rotatable=0;points=[[0,0.5],[1,0.5]];portConstraint=eastwest;whiteSpace=wrap;html=1;" vertex="1" parent="WIyWlLk6GJQsqaUBKTNV-1">
          <mxGeometry x="280" y="114" width="100" height="26" as="geometry" />
        </mxCell>
        <mxCell id="T6R3TMmmlZJ9ly_gr5W5-19" value="Администратор" style="text;strokeColor=none;fillColor=none;align=left;verticalAlign=top;spacingLeft=4;spacingRight=4;overflow=hidden;rotatable=0;points=[[0,0.5],[1,0.5]];portConstraint=eastwest;whiteSpace=wrap;html=1;" vertex="1" parent="WIyWlLk6GJQsqaUBKTNV-1">
          <mxGeometry x="-75" y="700" width="100" height="26" as="geometry" />
        </mxCell>
        <mxCell id="T6R3TMmmlZJ9ly_gr5W5-32" style="edgeStyle=orthogonalEdgeStyle;rounded=0;orthogonalLoop=1;jettySize=auto;html=1;exitX=0;exitY=0.5;exitDx=0;exitDy=0;entryX=0.5;entryY=0;entryDx=0;entryDy=0;" edge="1" parent="WIyWlLk6GJQsqaUBKTNV-1" source="T6R3TMmmlZJ9ly_gr5W5-22" target="T6R3TMmmlZJ9ly_gr5W5-24">
          <mxGeometry relative="1" as="geometry" />
        </mxCell>
        <mxCell id="T6R3TMmmlZJ9ly_gr5W5-34" style="edgeStyle=orthogonalEdgeStyle;rounded=0;orthogonalLoop=1;jettySize=auto;html=1;entryX=0.5;entryY=0;entryDx=0;entryDy=0;" edge="1" parent="WIyWlLk6GJQsqaUBKTNV-1" source="T6R3TMmmlZJ9ly_gr5W5-22" target="T6R3TMmmlZJ9ly_gr5W5-26">
          <mxGeometry relative="1" as="geometry" />
        </mxCell>
        <mxCell id="T6R3TMmmlZJ9ly_gr5W5-58" style="edgeStyle=orthogonalEdgeStyle;rounded=0;orthogonalLoop=1;jettySize=auto;html=1;exitX=1;exitY=0.5;exitDx=0;exitDy=0;entryX=0;entryY=0.5;entryDx=0;entryDy=0;" edge="1" parent="WIyWlLk6GJQsqaUBKTNV-1" source="T6R3TMmmlZJ9ly_gr5W5-22" target="T6R3TMmmlZJ9ly_gr5W5-14">
          <mxGeometry relative="1" as="geometry" />
        </mxCell>
        <mxCell id="T6R3TMmmlZJ9ly_gr5W5-59" value="Да" style="edgeLabel;html=1;align=center;verticalAlign=middle;resizable=0;points=[];" vertex="1" connectable="0" parent="T6R3TMmmlZJ9ly_gr5W5-58">
          <mxGeometry x="-0.5556" y="-1" relative="1" as="geometry">
            <mxPoint x="6" y="-11" as="offset" />
          </mxGeometry>
        </mxCell>
        <mxCell id="T6R3TMmmlZJ9ly_gr5W5-22" value="" style="rhombus;whiteSpace=wrap;html=1;" vertex="1" parent="WIyWlLk6GJQsqaUBKTNV-1">
          <mxGeometry x="300" y="170" width="50" height="50" as="geometry" />
        </mxCell>
        <mxCell id="T6R3TMmmlZJ9ly_gr5W5-23" value="Пользователь авторизован?" style="text;html=1;align=center;verticalAlign=middle;whiteSpace=wrap;rounded=0;" vertex="1" parent="WIyWlLk6GJQsqaUBKTNV-1">
          <mxGeometry x="245" y="140" width="60" height="30" as="geometry" />
        </mxCell>
        <mxCell id="T6R3TMmmlZJ9ly_gr5W5-31" style="edgeStyle=orthogonalEdgeStyle;rounded=0;orthogonalLoop=1;jettySize=auto;html=1;entryX=0;entryY=0.5;entryDx=0;entryDy=0;" edge="1" parent="WIyWlLk6GJQsqaUBKTNV-1" source="T6R3TMmmlZJ9ly_gr5W5-24" target="T6R3TMmmlZJ9ly_gr5W5-29">
          <mxGeometry relative="1" as="geometry" />
        </mxCell>
        <mxCell id="T6R3TMmmlZJ9ly_gr5W5-40" style="edgeStyle=orthogonalEdgeStyle;rounded=0;orthogonalLoop=1;jettySize=auto;html=1;entryX=0.5;entryY=0;entryDx=0;entryDy=0;" edge="1" parent="WIyWlLk6GJQsqaUBKTNV-1" source="T6R3TMmmlZJ9ly_gr5W5-24" target="T6R3TMmmlZJ9ly_gr5W5-36">
          <mxGeometry relative="1" as="geometry" />
        </mxCell>
        <mxCell id="T6R3TMmmlZJ9ly_gr5W5-24" value="Загрузка формы регистрации" style="html=1;whiteSpace=wrap;" vertex="1" parent="WIyWlLk6GJQsqaUBKTNV-1">
          <mxGeometry x="80" y="230" width="110" height="50" as="geometry" />
        </mxCell>
        <mxCell id="T6R3TMmmlZJ9ly_gr5W5-37" style="edgeStyle=orthogonalEdgeStyle;rounded=0;orthogonalLoop=1;jettySize=auto;html=1;exitX=0;exitY=0.5;exitDx=0;exitDy=0;entryX=0.5;entryY=0;entryDx=0;entryDy=0;" edge="1" parent="WIyWlLk6GJQsqaUBKTNV-1" source="T6R3TMmmlZJ9ly_gr5W5-25" target="T6R3TMmmlZJ9ly_gr5W5-36">
          <mxGeometry relative="1" as="geometry" />
        </mxCell>
        <mxCell id="T6R3TMmmlZJ9ly_gr5W5-25" value="Загрузка формы авторизации" style="html=1;whiteSpace=wrap;" vertex="1" parent="WIyWlLk6GJQsqaUBKTNV-1">
          <mxGeometry x="230" y="300" width="110" height="50" as="geometry" />
        </mxCell>
        <mxCell id="T6R3TMmmlZJ9ly_gr5W5-38" style="edgeStyle=orthogonalEdgeStyle;rounded=0;orthogonalLoop=1;jettySize=auto;html=1;exitX=0.5;exitY=1;exitDx=0;exitDy=0;entryX=0.5;entryY=0;entryDx=0;entryDy=0;" edge="1" parent="WIyWlLk6GJQsqaUBKTNV-1" source="T6R3TMmmlZJ9ly_gr5W5-26" target="T6R3TMmmlZJ9ly_gr5W5-36">
          <mxGeometry relative="1" as="geometry" />
        </mxCell>
        <mxCell id="T6R3TMmmlZJ9ly_gr5W5-26" value="Авторизация с помощью Google" style="html=1;whiteSpace=wrap;" vertex="1" parent="WIyWlLk6GJQsqaUBKTNV-1">
          <mxGeometry x="-40" y="230" width="110" height="50" as="geometry" />
        </mxCell>
        <mxCell id="T6R3TMmmlZJ9ly_gr5W5-35" style="edgeStyle=orthogonalEdgeStyle;rounded=0;orthogonalLoop=1;jettySize=auto;html=1;exitX=0.5;exitY=1;exitDx=0;exitDy=0;entryX=0.5;entryY=0;entryDx=0;entryDy=0;" edge="1" parent="WIyWlLk6GJQsqaUBKTNV-1" source="T6R3TMmmlZJ9ly_gr5W5-29" target="T6R3TMmmlZJ9ly_gr5W5-25">
          <mxGeometry relative="1" as="geometry" />
        </mxCell>
        <mxCell id="T6R3TMmmlZJ9ly_gr5W5-29" value="Авторизация с существующим аккаунтом" style="html=1;whiteSpace=wrap;" vertex="1" parent="WIyWlLk6GJQsqaUBKTNV-1">
          <mxGeometry x="230" y="230" width="110" height="50" as="geometry" />
        </mxCell>
        <mxCell id="T6R3TMmmlZJ9ly_gr5W5-33" value="Нет" style="text;html=1;align=center;verticalAlign=middle;resizable=0;points=[];autosize=1;strokeColor=none;fillColor=none;" vertex="1" parent="WIyWlLk6GJQsqaUBKTNV-1">
          <mxGeometry x="185" y="170" width="40" height="30" as="geometry" />
        </mxCell>
        <mxCell id="T6R3TMmmlZJ9ly_gr5W5-42" style="edgeStyle=orthogonalEdgeStyle;rounded=0;orthogonalLoop=1;jettySize=auto;html=1;exitX=0.5;exitY=1;exitDx=0;exitDy=0;entryX=0.5;entryY=0;entryDx=0;entryDy=0;" edge="1" parent="WIyWlLk6GJQsqaUBKTNV-1" source="T6R3TMmmlZJ9ly_gr5W5-36" target="T6R3TMmmlZJ9ly_gr5W5-41">
          <mxGeometry relative="1" as="geometry" />
        </mxCell>
        <mxCell id="T6R3TMmmlZJ9ly_gr5W5-43" value="Пользователь существует?" style="edgeLabel;html=1;align=center;verticalAlign=middle;resizable=0;points=[];" vertex="1" connectable="0" parent="T6R3TMmmlZJ9ly_gr5W5-42">
          <mxGeometry x="-0.1136" y="2" relative="1" as="geometry">
            <mxPoint x="-68" y="-12" as="offset" />
          </mxGeometry>
        </mxCell>
        <mxCell id="T6R3TMmmlZJ9ly_gr5W5-52" style="edgeStyle=orthogonalEdgeStyle;rounded=0;orthogonalLoop=1;jettySize=auto;html=1;entryX=0.5;entryY=0;entryDx=0;entryDy=0;" edge="1" parent="WIyWlLk6GJQsqaUBKTNV-1" source="T6R3TMmmlZJ9ly_gr5W5-36" target="T6R3TMmmlZJ9ly_gr5W5-1">
          <mxGeometry relative="1" as="geometry">
            <Array as="points">
              <mxPoint x="145" y="530" />
              <mxPoint x="195" y="530" />
            </Array>
          </mxGeometry>
        </mxCell>
        <mxCell id="T6R3TMmmlZJ9ly_gr5W5-53" style="edgeStyle=orthogonalEdgeStyle;rounded=0;orthogonalLoop=1;jettySize=auto;html=1;exitX=0.5;exitY=1;exitDx=0;exitDy=0;entryX=0.5;entryY=0;entryDx=0;entryDy=0;" edge="1" parent="WIyWlLk6GJQsqaUBKTNV-1" source="T6R3TMmmlZJ9ly_gr5W5-36" target="T6R3TMmmlZJ9ly_gr5W5-41">
          <mxGeometry relative="1" as="geometry" />
        </mxCell>
        <mxCell id="T6R3TMmmlZJ9ly_gr5W5-36" value="Обработка авторизации" style="html=1;whiteSpace=wrap;" vertex="1" parent="WIyWlLk6GJQsqaUBKTNV-1">
          <mxGeometry x="90" y="350" width="110" height="50" as="geometry" />
        </mxCell>
        <mxCell id="T6R3TMmmlZJ9ly_gr5W5-46" style="edgeStyle=orthogonalEdgeStyle;rounded=0;orthogonalLoop=1;jettySize=auto;html=1;exitX=0;exitY=0.5;exitDx=0;exitDy=0;entryX=1;entryY=0.5;entryDx=0;entryDy=0;" edge="1" parent="WIyWlLk6GJQsqaUBKTNV-1" source="T6R3TMmmlZJ9ly_gr5W5-41" target="T6R3TMmmlZJ9ly_gr5W5-44">
          <mxGeometry relative="1" as="geometry" />
        </mxCell>
        <mxCell id="T6R3TMmmlZJ9ly_gr5W5-47" value="Нет" style="edgeLabel;html=1;align=center;verticalAlign=middle;resizable=0;points=[];" vertex="1" connectable="0" parent="T6R3TMmmlZJ9ly_gr5W5-46">
          <mxGeometry x="-0.3309" y="4" relative="1" as="geometry">
            <mxPoint as="offset" />
          </mxGeometry>
        </mxCell>
        <mxCell id="T6R3TMmmlZJ9ly_gr5W5-97" style="edgeStyle=orthogonalEdgeStyle;rounded=0;orthogonalLoop=1;jettySize=auto;html=1;entryX=0;entryY=0.5;entryDx=0;entryDy=0;" edge="1" parent="WIyWlLk6GJQsqaUBKTNV-1" source="T6R3TMmmlZJ9ly_gr5W5-41" target="T6R3TMmmlZJ9ly_gr5W5-14">
          <mxGeometry relative="1" as="geometry">
            <Array as="points">
              <mxPoint x="370" y="475" />
              <mxPoint x="370" y="195" />
            </Array>
          </mxGeometry>
        </mxCell>
        <mxCell id="T6R3TMmmlZJ9ly_gr5W5-98" value="Да" style="edgeLabel;html=1;align=center;verticalAlign=middle;resizable=0;points=[];" vertex="1" connectable="0" parent="T6R3TMmmlZJ9ly_gr5W5-97">
          <mxGeometry x="-0.514" y="-3" relative="1" as="geometry">
            <mxPoint as="offset" />
          </mxGeometry>
        </mxCell>
        <mxCell id="T6R3TMmmlZJ9ly_gr5W5-41" value="" style="rhombus;whiteSpace=wrap;html=1;" vertex="1" parent="WIyWlLk6GJQsqaUBKTNV-1">
          <mxGeometry x="75" y="450" width="50" height="50" as="geometry" />
        </mxCell>
        <mxCell id="T6R3TMmmlZJ9ly_gr5W5-48" style="edgeStyle=orthogonalEdgeStyle;rounded=0;orthogonalLoop=1;jettySize=auto;html=1;entryX=0.5;entryY=0;entryDx=0;entryDy=0;" edge="1" parent="WIyWlLk6GJQsqaUBKTNV-1" source="T6R3TMmmlZJ9ly_gr5W5-44" target="T6R3TMmmlZJ9ly_gr5W5-45">
          <mxGeometry relative="1" as="geometry" />
        </mxCell>
        <mxCell id="T6R3TMmmlZJ9ly_gr5W5-44" value="Загрузка формы ввода данных пользователя" style="html=1;whiteSpace=wrap;" vertex="1" parent="WIyWlLk6GJQsqaUBKTNV-1">
          <mxGeometry x="-80" y="440" width="110" height="50" as="geometry" />
        </mxCell>
        <mxCell id="T6R3TMmmlZJ9ly_gr5W5-50" style="edgeStyle=orthogonalEdgeStyle;rounded=0;orthogonalLoop=1;jettySize=auto;html=1;exitX=0.5;exitY=1;exitDx=0;exitDy=0;entryX=0.5;entryY=0;entryDx=0;entryDy=0;" edge="1" parent="WIyWlLk6GJQsqaUBKTNV-1" source="T6R3TMmmlZJ9ly_gr5W5-45" target="T6R3TMmmlZJ9ly_gr5W5-2">
          <mxGeometry relative="1" as="geometry" />
        </mxCell>
        <mxCell id="T6R3TMmmlZJ9ly_gr5W5-51" style="edgeStyle=orthogonalEdgeStyle;rounded=0;orthogonalLoop=1;jettySize=auto;html=1;exitX=0.5;exitY=1;exitDx=0;exitDy=0;entryX=0.5;entryY=0;entryDx=0;entryDy=0;" edge="1" parent="WIyWlLk6GJQsqaUBKTNV-1" source="T6R3TMmmlZJ9ly_gr5W5-45" target="T6R3TMmmlZJ9ly_gr5W5-1">
          <mxGeometry relative="1" as="geometry" />
        </mxCell>
        <mxCell id="T6R3TMmmlZJ9ly_gr5W5-45" value="Обработка данных" style="html=1;whiteSpace=wrap;" vertex="1" parent="WIyWlLk6GJQsqaUBKTNV-1">
          <mxGeometry x="-80" y="535" width="110" height="50" as="geometry" />
        </mxCell>
        <mxCell id="T6R3TMmmlZJ9ly_gr5W5-79" style="edgeStyle=orthogonalEdgeStyle;rounded=0;orthogonalLoop=1;jettySize=auto;html=1;entryX=0.5;entryY=0;entryDx=0;entryDy=0;" edge="1" parent="WIyWlLk6GJQsqaUBKTNV-1" source="T6R3TMmmlZJ9ly_gr5W5-65" target="T6R3TMmmlZJ9ly_gr5W5-1">
          <mxGeometry relative="1" as="geometry">
            <Array as="points">
              <mxPoint x="745" y="630" />
              <mxPoint x="195" y="630" />
            </Array>
          </mxGeometry>
        </mxCell>
        <mxCell id="T6R3TMmmlZJ9ly_gr5W5-65" value="Оставление метки &quot;Нравится&quot;" style="html=1;whiteSpace=wrap;" vertex="1" parent="WIyWlLk6GJQsqaUBKTNV-1">
          <mxGeometry x="690" y="360" width="110" height="50" as="geometry" />
        </mxCell>
        <mxCell id="T6R3TMmmlZJ9ly_gr5W5-96" style="edgeStyle=orthogonalEdgeStyle;rounded=0;orthogonalLoop=1;jettySize=auto;html=1;entryX=0.5;entryY=1;entryDx=0;entryDy=0;" edge="1" parent="WIyWlLk6GJQsqaUBKTNV-1" source="T6R3TMmmlZJ9ly_gr5W5-70" target="T6R3TMmmlZJ9ly_gr5W5-2">
          <mxGeometry relative="1" as="geometry">
            <Array as="points">
              <mxPoint x="1100" y="730" />
              <mxPoint x="100" y="730" />
            </Array>
          </mxGeometry>
        </mxCell>
        <mxCell id="T6R3TMmmlZJ9ly_gr5W5-70" value="Публикация проекта" style="html=1;whiteSpace=wrap;" vertex="1" parent="WIyWlLk6GJQsqaUBKTNV-1">
          <mxGeometry x="1050" y="350" width="110" height="50" as="geometry" />
        </mxCell>
        <mxCell id="T6R3TMmmlZJ9ly_gr5W5-84" style="edgeStyle=orthogonalEdgeStyle;rounded=0;orthogonalLoop=1;jettySize=auto;html=1;exitX=0.5;exitY=1;exitDx=0;exitDy=0;entryX=0.5;entryY=0;entryDx=0;entryDy=0;" edge="1" parent="WIyWlLk6GJQsqaUBKTNV-1" source="T6R3TMmmlZJ9ly_gr5W5-81" target="T6R3TMmmlZJ9ly_gr5W5-83">
          <mxGeometry relative="1" as="geometry" />
        </mxCell>
        <mxCell id="T6R3TMmmlZJ9ly_gr5W5-81" value="Работа с проектом" style="html=1;whiteSpace=wrap;" vertex="1" parent="WIyWlLk6GJQsqaUBKTNV-1">
          <mxGeometry x="860" y="470" width="110" height="50" as="geometry" />
        </mxCell>
        <mxCell id="T6R3TMmmlZJ9ly_gr5W5-85" style="edgeStyle=orthogonalEdgeStyle;rounded=0;orthogonalLoop=1;jettySize=auto;html=1;exitX=0.5;exitY=1;exitDx=0;exitDy=0;entryX=0.5;entryY=0;entryDx=0;entryDy=0;" edge="1" parent="WIyWlLk6GJQsqaUBKTNV-1" source="T6R3TMmmlZJ9ly_gr5W5-83" target="T6R3TMmmlZJ9ly_gr5W5-1">
          <mxGeometry relative="1" as="geometry">
            <Array as="points">
              <mxPoint x="920" y="600" />
              <mxPoint x="920" y="630" />
              <mxPoint x="195" y="630" />
            </Array>
          </mxGeometry>
        </mxCell>
        <mxCell id="T6R3TMmmlZJ9ly_gr5W5-83" value="Обновление прогресса" style="html=1;whiteSpace=wrap;" vertex="1" parent="WIyWlLk6GJQsqaUBKTNV-1">
          <mxGeometry x="860" y="550" width="110" height="50" as="geometry" />
        </mxCell>
        <mxCell id="T6R3TMmmlZJ9ly_gr5W5-105" style="edgeStyle=orthogonalEdgeStyle;rounded=0;orthogonalLoop=1;jettySize=auto;html=1;entryX=0.5;entryY=1;entryDx=0;entryDy=0;" edge="1" parent="WIyWlLk6GJQsqaUBKTNV-1" source="T6R3TMmmlZJ9ly_gr5W5-101" target="T6R3TMmmlZJ9ly_gr5W5-2">
          <mxGeometry relative="1" as="geometry">
            <Array as="points">
              <mxPoint x="1186" y="730" />
              <mxPoint x="100" y="730" />
            </Array>
          </mxGeometry>
        </mxCell>
        <mxCell id="T6R3TMmmlZJ9ly_gr5W5-101" value="Редактирование профиля" style="html=1;whiteSpace=wrap;" vertex="1" parent="WIyWlLk6GJQsqaUBKTNV-1">
          <mxGeometry x="1131" y="270" width="110" height="50" as="geometry" />
        </mxCell>
        <mxCell id="T6R3TMmmlZJ9ly_gr5W5-106" style="edgeStyle=orthogonalEdgeStyle;rounded=0;orthogonalLoop=1;jettySize=auto;html=1;exitX=0.5;exitY=1;exitDx=0;exitDy=0;entryX=0.424;entryY=0.047;entryDx=0;entryDy=0;entryPerimeter=0;" edge="1" parent="WIyWlLk6GJQsqaUBKTNV-1" source="T6R3TMmmlZJ9ly_gr5W5-3" target="T6R3TMmmlZJ9ly_gr5W5-70">
          <mxGeometry relative="1" as="geometry" />
        </mxCell>
      </root>
    </mxGraphModel>
  </diagram>
</mxfile>
